<?xml version="1.0" standalone="no"?>
<!DOCTYPE svg PUBLIC "-//W3C//DTD SVG 20010904//EN"
 "http://www.w3.org/TR/2001/REC-SVG-20010904/DTD/svg10.dtd">
<svg version="1.0" xmlns="http://www.w3.org/2000/svg"
 width="1280.000000pt" height="1280.000000pt" viewBox="0 0 1280.000000 1280.000000"
 preserveAspectRatio="xMidYMid meet">

<g transform="translate(0.000000,1280.000000) scale(0.100000,-0.100000)"
fill="#000000" stroke="none">
<path d="M8335 12480 c27 -12 43 -12 25 0 -8 5 -22 9 -30 9 -10 0 -8 -3 5 -9z"/>
<path d="M8395 12460 c27 -12 43 -12 25 0 -8 5 -22 9 -30 9 -10 0 -8 -3 5 -9z"/>
<path d="M8455 12440 c27 -12 43 -12 25 0 -8 5 -22 9 -30 9 -10 0 -8 -3 5 -9z"/>
<path d="M8525 12415 c17 -8 36 -14 43 -15 7 0 10 -5 7 -11 -8 -12 -9 -11964
-2 -11976 3 -5 -26 -20 -64 -33 -38 -13 -67 -25 -64 -28 2 -3 17 0 32 6 15 6
49 18 75 27 26 10 45 21 43 25 -3 5 3 6 12 4 10 -3 108 32 218 76 1061 429
1996 1150 2689 2075 669 892 1089 1928 1231 3035 61 482 62 1118 0 1595 -213
1661 -1052 3159 -2350 4195 -360 287 -719 517 -1125 719 -254 126 -640 287
-665 277 -9 -3 -14 -2 -11 3 3 5 -14 16 -37 25 -51 19 -74 20 -32 1z"/>
<path d="M8395 340 c-13 -6 -15 -9 -5 -9 8 0 22 4 30 9 18 12 2 12 -25 0z"/>
</g>
</svg>
